<?xml version="1.0" encoding="UTF-8" standalone="no"?><!DOCTYPE svg PUBLIC "-//W3C//DTD SVG 1.1//EN" "http://www.w3.org/Graphics/SVG/1.1/DTD/svg11.dtd"><svg width="100%" height="100%" viewBox="0 0 129 96" version="1.1" xmlns="http://www.w3.org/2000/svg" xmlns:xlink="http://www.w3.org/1999/xlink" xml:space="preserve" xmlns:serif="http://www.serif.com/" style="fill-rule:evenodd;clip-rule:evenodd;stroke-linejoin:round;stroke-miterlimit:1.41421;"><path d="M64.538,20.168l0,44.773c0,9.95 -2.712,17.614 -8.135,22.992c-5.423,5.378 -12.93,8.067 -22.521,8.067c-10.397,0 -18.644,-2.936 -24.739,-8.807c-6.095,-5.871 -9.143,-14.319 -9.143,-25.344l22.723,0c0,8.874 3.361,13.311 10.084,13.311c5.826,0 8.739,-3.406 8.739,-10.219l0,-64.941l36.865,0c10.219,0 19.048,1.972 26.488,5.916c7.439,3.944 13.154,9.501 17.143,16.672c3.988,7.171 5.983,15.418 5.983,24.74c0,9.322 -1.995,17.591 -5.983,24.806c-3.989,7.216 -9.726,12.841 -17.211,16.874c-7.484,4.034 -16.29,6.051 -26.42,6.051l-12.907,0l0,-20.572l10.891,0c8.963,0 15.932,-2.375 20.907,-7.126c4.975,-4.75 7.462,-11.428 7.462,-20.033c0,-8.605 -2.487,-15.283 -7.462,-20.034c-4.975,-4.751 -11.944,-7.126 -20.907,-7.126l-11.857,0Z" style="fill-rule:nonzero;"/></svg>